<svg width="371" height="271" viewBox="0 0 371 271" fill="none" xmlns="http://www.w3.org/2000/svg">
<path d="M24 0.5H192.629C197.875 0.5 202.129 4.75329 202.129 10V259.686C202.129 264.932 197.875 269.186 192.629 269.186H24C11.0213 269.186 0.5 258.664 0.5 245.686V24C0.5 11.0213 11.0213 0.5 24 0.5Z" fill="#800A1D" stroke="black"/>
<path d="M202.4 24.553H236.886C247.993 24.5531 257.638 29.7643 274.837 43.7562C275.039 43.9205 275.239 44.0835 275.438 44.2453C283.695 50.9644 289.396 55.6036 296.629 58.5547C304.046 61.5803 313.035 62.8193 327.996 62.8193H370.5V250.37C370.5 252.742 370.402 256.283 368.741 259.265C367.109 262.194 363.915 264.67 357.505 264.812C344.44 265.103 248.997 264.935 202.4 264.814V24.553Z" fill="#CE1030" stroke="black"/>
<path d="M206.812 36.0796V36.0503L206.809 36.0212C206.696 35.0659 206.806 33.8791 207.744 32.922C208.695 31.9528 210.598 31.113 214.33 31.113H240.899C245.211 31.7219 256.742 35.237 266.836 44.4663L266.844 44.4734L266.852 44.4802C273.578 50.1255 278.904 54.5831 283.535 57.9568C288.168 61.332 292.134 63.643 296.146 64.9802C304.972 67.9223 313.791 68.2859 324.713 68.65C333.462 68.9416 353.476 68.7722 362.238 68.6508C363.829 68.8685 365.801 70.5082 365.801 75.0747V89.2878V141.767V250.37V250.391L365.803 250.412C365.917 251.775 365.607 253.831 364.317 255.535C363.047 257.215 360.775 258.617 356.826 258.617H206.812V53.5727V46.2839L206.812 36.0796Z" fill="#CE1030"/>
<path d="M206.812 36.0796V36.0503L206.809 36.0212C206.696 35.0659 206.806 33.8791 207.744 32.922C208.695 31.9528 210.598 31.113 214.33 31.113H240.899C245.211 31.7219 256.742 35.237 266.836 44.4663L266.844 44.4734L266.852 44.4802C273.578 50.1255 278.904 54.5831 283.535 57.9568C288.168 61.332 292.134 63.643 296.146 64.9802C304.972 67.9223 313.791 68.2859 324.713 68.65C333.462 68.9416 353.476 68.7722 362.238 68.6508C363.829 68.8685 365.801 70.5082 365.801 75.0747V89.2878V141.767V250.37V250.391L365.803 250.412C365.917 251.775 365.607 253.831 364.317 255.535C363.047 257.215 360.775 258.617 356.826 258.617H206.812V53.5727V46.2839L206.812 36.0796Z" stroke="black"/>
<path d="M206.812 36.0796V36.0503L206.809 36.0212C206.696 35.0659 206.806 33.8791 207.744 32.922C208.695 31.9528 210.598 31.113 214.33 31.113H240.899C245.211 31.7219 256.742 35.237 266.836 44.4663L266.844 44.4734L266.852 44.4802C273.578 50.1255 278.904 54.5831 283.535 57.9568C288.168 61.332 292.134 63.643 296.146 64.9802C304.972 67.9223 313.791 68.2859 324.713 68.65C333.462 68.9416 353.476 68.7722 362.238 68.6508C363.829 68.8685 365.801 70.5082 365.801 75.0747V89.2878V141.767V250.37V250.391L365.803 250.412C365.917 251.775 365.607 253.831 364.317 255.535C363.047 257.215 360.775 258.617 356.826 258.617H206.812V53.5727V46.2839L206.812 36.0796Z" stroke="black" stroke-opacity="0.2"/>
<path d="M25.4755 0.5H192.629C197.875 0.5 202.129 4.75329 202.129 10V51.2505H15.4755C12.4379 51.2505 9.97546 48.7881 9.97546 45.7505V16C9.97546 7.43959 16.9151 0.5 25.4755 0.5Z" fill="#CE1030" stroke="black"/>
<rect x="178.347" y="17.1208" width="23.7819" height="248.564" fill="#CE1030" stroke="black"/>
<path d="M202.129 266.185C202.129 266.555 201.91 266.983 201.341 267.442C200.777 267.898 199.929 268.33 198.838 268.702C196.66 269.446 193.62 269.915 190.238 269.915C186.856 269.915 183.815 269.446 181.638 268.702C180.546 268.33 179.699 267.898 179.135 267.442C178.566 266.983 178.347 266.555 178.347 266.185C178.347 265.814 178.566 265.386 179.135 264.927C179.699 264.472 180.546 264.039 181.638 263.667C183.815 262.923 186.856 262.455 190.238 262.455C193.62 262.455 196.66 262.923 198.838 263.667C199.929 264.039 200.777 264.472 201.341 264.927C201.91 265.386 202.129 265.814 202.129 266.185Z" fill="#800A1D" stroke="black"/>
<path d="M202.129 16.6209C202.129 16.9911 201.91 17.4192 201.341 17.8782C200.776 18.3338 199.929 18.7661 198.838 19.1387C196.66 19.8821 193.62 20.3507 190.238 20.3507C186.856 20.3507 183.815 19.8821 181.638 19.1387C180.546 18.7661 179.699 18.3338 179.135 17.8782C178.566 17.4192 178.347 16.9911 178.347 16.6209C178.347 16.2506 178.566 15.8225 179.135 15.3635C179.699 14.9079 180.546 14.4756 181.638 14.1031C183.815 13.3597 186.856 12.891 190.238 12.891C193.62 12.891 196.66 13.3597 198.838 14.1031C199.929 14.4756 200.776 14.9079 201.341 15.3635C201.91 15.8225 202.129 16.2506 202.129 16.6209Z" fill="#CE1030" stroke="black"/>
<rect x="178.576" y="16.7643" width="23.3242" height="4.37328" fill="#CE1030"/>
<path d="M21.1657 266.041H178.211V19.6798L159.95 19.6797L135.48 19.6798C127.505 19.6797 108.819 35.3739 101.88 40.1186C95.671 46.3233 75.5838 57.6377 65.3576 58.0027C55.1314 58.3677 8.0177 58.0027 8.0177 58.0027V248.157C8.0177 258.669 9.11337 266.041 21.1657 266.041Z" fill="#CE1030" stroke="black"/>
<path d="M57.8104 25.8752C57.8104 36.6525 48.7508 45.4194 37.5373 45.4194C26.3238 45.4194 17.2642 36.6525 17.2642 25.8752C17.2642 15.0979 26.3238 6.33102 37.5373 6.33102C48.7508 6.33102 57.8104 15.0979 57.8104 25.8752Z" fill="white" stroke="black"/>
<circle cx="38.6306" cy="24.053" r="15.5354" fill="#0CCDFF" stroke="black"/>
<ellipse cx="39.3595" cy="24.4175" rx="13.1198" ry="13.4843" fill="#009DD3"/>
<ellipse cx="37.5373" cy="17.1287" rx="9.111" ry="8.38212" fill="#0CCDFF"/>
<circle cx="36.5" cy="16.5" r="5.5" fill="white"/>
<circle cx="67.7859" cy="13.8487" r="5.33104" fill="#EB0808" stroke="black"/>
<circle cx="67.7859" cy="13.8487" r="4.37328" fill="#8D0306"/>
<ellipse cx="67.4214" cy="12.391" rx="3.27996" ry="2.91552" fill="#EB0808"/>
<circle cx="66.964" cy="11.569" r="1.36471" fill="#D4344E"/>
<circle cx="84.5501" cy="13.8487" r="5.33104" fill="#E3E913" stroke="black"/>
<circle cx="84.5501" cy="13.8487" r="4.37328" fill="#9B8F23"/>
<ellipse cx="84.1857" cy="12.391" rx="3.27996" ry="2.91552" fill="#E3E913"/>
<circle cx="83.7282" cy="11.569" r="1.36471" fill="#BCAB2B"/>
<circle cx="339.294" cy="201.535" r="6.42436" fill="#E3E913" stroke="black"/>
<circle cx="339.294" cy="201.535" r="5.19327" fill="#9B8F23"/>
<ellipse cx="338.861" cy="199.804" rx="3.89495" ry="3.46218" fill="#E3E913"/>
<circle cx="338.318" cy="198.828" r="1.6206" fill="#BCAB2B"/>
<circle cx="101.314" cy="13.8487" r="5.33104" fill="#55E148" stroke="black"/>
<circle cx="101.314" cy="13.8487" r="4.37328" fill="#6E8C0B"/>
<ellipse cx="100.95" cy="12.391" rx="3.27996" ry="2.91552" fill="#55E148"/>
<circle cx="100.492" cy="11.569" r="1.36471" fill="#C5D316"/>
<path d="M13.1199 63.0481C13.1199 59.2579 17.0072 58.0674 18.9509 57.946L30.9774 55.3949L77.2613 51.386L104.959 33.8929L127.19 19.6797H166.549C171.506 19.6797 172.016 23.5671 171.651 25.5108V260.939C131.077 260.939 46.3325 261.304 31.4634 261.304C16.5942 261.304 13.4843 260.21 13.1199 250.006V63.0481Z" fill="#CE1030" stroke="black"/>
<path d="M185.71 12.8485C181.123 13.4504 178.695 15.5389 177.847 16.7643V19.6799H135.572C131.927 19.6799 123.181 23.3242 101.679 40.0885C95.3618 45.798 78.7191 57.3629 62.6837 57.946H8.0177V53.5728C8.0177 52.8439 8.74658 51.7506 10.9332 51.7506H17.4931H29.1552H50.2927H61.9548C69.9725 51.7506 84.2586 46.2839 97.67 36.0796C116.256 22.5953 123.545 13.8487 137.029 13.8487L185.71 12.8485C187.035 12.6747 188.539 12.6249 190.238 12.7555L185.71 12.8485Z" fill="#800A1D"/>
<path d="M190.238 12.7555C182.657 12.1724 178.94 15.1851 177.847 16.7643V19.6799H135.572C131.927 19.6799 123.181 23.3242 101.679 40.0885C95.3618 45.798 78.7191 57.3629 62.6837 57.946C46.0652 57.946 19.3153 57.946 8.0177 57.946V53.5728C8.0177 52.8439 8.74658 51.7506 10.9332 51.7506C13.2656 51.7506 16.2783 51.7506 17.4931 51.7506H29.1552H50.2927H61.9548C69.9725 51.7506 84.2586 46.2839 97.67 36.0796C116.256 22.5953 123.545 13.8487 137.029 13.8487L190.238 12.7555Z" stroke="black"/>
<path d="M240.166 36.8085H206.638C206.638 31.5737 209.176 31.343 213.167 30.9802L213.197 30.9774H231.419C248.913 30.613 249.641 33.5285 261.668 40.0884C264.826 42.761 273.84 50.2199 284.628 58.6749C295.415 67.1299 310.989 68.5147 317.427 68.1503L342.209 68.5147H359.338C366.991 68.5147 365.898 73.2525 365.898 76.168V248.913C365.898 255.618 362.253 258.024 360.431 258.388V95.4833V91.8389V80.1768C360.431 76.5324 359.338 74.3458 355.694 74.3458H340.751H330.912C325.809 74.1028 313.637 73.4711 305.765 72.888C297.893 72.888 286.45 66.5711 281.712 63.4126C275.881 58.7963 262.761 48.3248 256.93 43.3684C250.37 38.9951 243.689 36.8085 240.166 36.8085Z" fill="#800A1D" stroke="black"/>
<rect x="224.266" y="220.622" width="55.1238" height="18.6798" rx="4.5" fill="#032D28" stroke="black"/>
<rect x="290.594" y="220.622" width="55.1238" height="18.6798" rx="4.5" fill="#032D28" stroke="black"/>
<rect x="227.182" y="85.779" width="115.621" height="42.7328" rx="4.5" fill="#032D28" stroke="black"/>
<rect x="47.1483" y="220.622" width="64.5992" height="25.2397" rx="4.5" fill="#56AB63" stroke="black"/>
<rect x="287.679" y="177.618" width="24.5108" height="4.83104" rx="2.41552" fill="#032D28" stroke="black"/>
<rect x="50.0638" y="200.213" width="24.5108" height="4.83104" rx="2.41552" fill="#055175" stroke="black"/>
<rect x="321.207" y="177.618" width="24.5108" height="4.83104" rx="2.41552" fill="#032D28" stroke="black"/>
<rect x="88.6945" y="200.213" width="24.5108" height="4.83104" rx="2.41552" fill="#C50B18" stroke="black"/>
<circle cx="32.4352" cy="203.722" r="11.2976" fill="#000201"/>
<circle cx="33.5285" cy="202.629" r="9.70432" fill="#202020" stroke="black"/>
<rect x="225.724" y="192.195" width="49.2927" height="16.4931" rx="4.5" fill="#B1A6A6" stroke="black"/>
<path d="M231.682 190.009H251.693V207.231H231.682C229.196 207.231 227.182 205.216 227.182 202.731V194.509C227.182 192.024 229.196 190.009 231.682 190.009Z" fill="white" stroke="black"/>
<path d="M271.974 207.231H251.964V190.009H271.974C274.46 190.009 276.474 192.024 276.474 194.509V202.731C276.474 205.216 274.46 207.231 271.974 207.231Z" fill="white" stroke="black"/>
<rect x="251.464" y="207.731" width="0.72888" height="0.72888" fill="black"/>
<path d="M46.6483 51.386L44.0972 57.946" stroke="black"/>
<path d="M49.1994 51.7505L46.6483 58.3104" stroke="black"/>
<path d="M51.386 51.7505L48.835 58.3104" stroke="black"/>
<path d="M55.7593 51.7505L53.2083 58.3104" stroke="black"/>
<path d="M57.946 51.7505L55.3949 58.3104" stroke="black"/>
<path d="M230.953 139.716H249.506V154.751H226.453V144.216C226.453 141.731 228.468 139.716 230.953 139.716Z" fill="#2D7AAC" stroke="black"/>
<path d="M226.453 155.023H249.506V170.058H230.953C228.468 170.058 226.453 168.043 226.453 165.558V155.023Z" fill="#2D7AAC" stroke="black"/>
<rect x="249.777" y="139.716" width="23.053" height="15.0354" fill="#2D7AAC" stroke="black"/>
<rect x="249.777" y="155.023" width="23.053" height="15.0354" fill="#2D7AAC" stroke="black"/>
<rect x="273.101" y="139.716" width="23.053" height="15.0354" fill="#2D7AAC" stroke="black"/>
<rect x="273.101" y="155.023" width="23.053" height="15.0354" fill="#2D7AAC" stroke="black"/>
<rect x="296.425" y="139.716" width="23.053" height="15.0354" fill="#2D7AAC" stroke="black"/>
<rect x="296.425" y="155.023" width="23.053" height="15.0354" fill="#2D7AAC" stroke="black"/>
<path d="M319.75 139.716H338.303C340.788 139.716 342.803 141.731 342.803 144.216V154.751H319.75V139.716Z" fill="#2D7AAC" stroke="black"/>
<path d="M319.75 155.023H342.803V165.558C342.803 168.043 340.788 170.058 338.303 170.058H319.75V155.023Z" fill="#2D7AAC" stroke="black"/>
<path d="M232.411 138.258H250.964V153.294H227.911V142.758C227.911 140.273 229.925 138.258 232.411 138.258Z" fill="#31A7F3" stroke="black"/>
<path d="M227.911 153.565H250.964V168.6H232.411C229.925 168.6 227.911 166.585 227.911 164.1V153.565Z" fill="#31A7F3" stroke="black"/>
<rect x="251.235" y="138.258" width="23.053" height="15.0354" fill="#31A7F3" stroke="black"/>
<rect x="251.235" y="153.565" width="23.053" height="15.0354" fill="#31A7F3" stroke="black"/>
<rect x="274.559" y="138.258" width="23.053" height="15.0354" fill="#31A7F3" stroke="black"/>
<rect x="274.559" y="153.565" width="23.053" height="15.0354" fill="#31A7F3" stroke="black"/>
<rect x="297.883" y="138.258" width="23.053" height="15.0354" fill="#31A7F3" stroke="black"/>
<rect x="297.883" y="153.565" width="23.053" height="15.0354" fill="#31A7F3" stroke="black"/>
<path d="M321.207 138.258H339.76C342.246 138.258 344.26 140.273 344.26 142.758V153.294H321.207V138.258Z" fill="#31A7F3" stroke="black"/>
<path d="M321.207 153.565H344.26V164.1C344.26 166.585 342.246 168.6 339.76 168.6H321.207V153.565Z" fill="#31A7F3" stroke="black"/>
<rect x="249.277" y="169.1" width="1.45776" height="0.72888" fill="#2D7AAC"/>
<rect x="250.735" y="169.1" width="0.72888" height="0.72888" fill="black"/>
<rect x="226.682" y="155.251" width="1.45776" height="0.72888" transform="rotate(-90 226.682 155.251)" fill="#2D7AAC"/>
<rect x="226.682" y="153.794" width="0.72888" height="0.72888" transform="rotate(-90 226.682 153.794)" fill="black"/>
<rect x="272.601" y="169.1" width="1.45776" height="0.72888" fill="#2D7AAC"/>
<rect x="274.059" y="169.1" width="0.72888" height="0.72888" fill="black"/>
<rect x="295.925" y="169.1" width="1.45776" height="0.72888" fill="#2D7AAC"/>
<rect x="297.383" y="169.1" width="0.72888" height="0.72888" fill="black"/>
<rect x="319.25" y="169.1" width="1.45776" height="0.72888" fill="#2D7AAC"/>
<rect x="320.707" y="169.1" width="0.72888" height="0.72888" fill="black"/>
<rect x="135.343" y="194.382" width="11.391" height="42.0039" rx="4.5" fill="#131313" stroke="black"/>
<rect x="120.036" y="221.08" width="11.391" height="42.0039" rx="4.5" transform="rotate(-90 120.036 221.08)" fill="#131313" stroke="black"/>
<rect x="135.572" y="208.46" width="10.9332" height="13.8487" fill="#131313"/>
<rect x="137.529" y="192.195" width="11.391" height="42.0039" rx="4.5" fill="#262727" stroke="black"/>
<rect x="122.223" y="218.893" width="11.391" height="42.0039" rx="4.5" transform="rotate(-90 122.223 218.893)" fill="#262727" stroke="black"/>
<rect x="137.758" y="206.273" width="10.9332" height="13.8487" fill="#262727"/>
<circle cx="143.225" cy="213.197" r="3.50884" fill="#262727" stroke="black"/>
<path d="M23.3242 71.4932C23.3242 64.7911 28.3365 63.8441 30.8426 64.2083H160.804C165.387 64.2083 166.294 69.0649 166.175 71.4932V177.487C166.175 184.772 162.595 186.593 160.804 186.593H44.8054L23.3242 165.103V71.4932Z" fill="#6C6D75" stroke="black"/>
<path d="M25.5108 71.3181C25.5108 64.7757 30.4208 63.8512 32.8758 64.2067H160.185C164.674 64.2067 165.563 68.9477 165.446 71.3181V174.789C165.446 181.9 161.939 183.678 160.185 183.678H46.5537L25.5108 162.699V71.3181Z" fill="#DEDEDE" stroke="black"/>
<rect x="37.6729" y="76.3035" width="119.265" height="78.4479" rx="6.5" fill="white" stroke="black"/>
<rect x="116.621" y="161.811" width="36.444" height="2.18664" rx="1.09332" fill="black"/>
<rect x="116.621" y="166.914" width="36.444" height="2.18664" rx="1.09332" fill="black"/>
<rect x="116.621" y="171.287" width="36.444" height="2.18664" rx="1.09332" fill="black"/>
<rect x="116.621" y="175.66" width="36.444" height="2.18664" rx="1.09332" fill="black"/>
<circle cx="57.2171" cy="170.194" r="8.611" fill="#CE1030" stroke="black"/>
<circle cx="91.4745" cy="71.0658" r="1.3222" fill="#CE1030" stroke="black"/>
<circle cx="99.4921" cy="71.0658" r="1.3222" fill="#CE1030" stroke="black"/>
<path d="M202.264 38.2662C192.643 33.6014 182.099 36.3225 178.211 38.2662V30.2485C187.249 26.7499 198.134 28.7908 202.264 30.2485V38.2662Z" stroke="black"/>
<path d="M201.9 251.464C192.57 246.679 182.345 249.47 178.576 251.464V243.241C187.34 239.652 197.895 241.745 201.9 243.241V251.464Z" stroke="black"/>
<path d="M197.162 29.1552L196.069 36.0796" stroke="black"/>
<path d="M199.713 29.5197L198.62 36.8085" stroke="black"/>
<path d="M195.704 241.624L193.882 248.913" stroke="black"/>
<path d="M198.62 242.353L196.798 249.277" stroke="black"/>
<path d="M108.239 28.0619L110.425 33.5285" stroke="black"/>
<path d="M111.154 25.8752L113.341 31.3418" stroke="black"/>
<path d="M114.07 23.6886L116.621 29.1552" stroke="black"/>
<path d="M118.079 20.7731L120.63 26.2397" stroke="black"/>
<path d="M119.901 19.6797L122.816 25.1463" stroke="black"/>
<path d="M123.181 17.4931L126.096 22.9597" stroke="black"/>
<path d="M8.50298 255.612L5 260" stroke="black"/>
<path d="M9.11101 258.388L6.5 261.5" stroke="black"/>
<path d="M10 261L8 263" stroke="black"/>
<path d="M12 263L10 265" stroke="black"/>
<path d="M13 264L12 266" stroke="black"/>
<path d="M8 253L4 258" stroke="black"/>
<path d="M8.01768 251.099L3 256" stroke="black"/>
<path d="M241.259 31.3419L240.166 36.8085" stroke="black"/>
<path d="M243.81 31.7063L242.353 36.8085" stroke="black"/>
<path d="M246.726 32.4352L244.175 37.5373" stroke="black"/>
<path d="M248.913 32.7996L246.726 38.2662" stroke="black"/>
<path d="M251.464 34.2574L248.548 38.9951" stroke="black"/>
<path d="M253.65 35.3507L250.37 39.724" stroke="black"/>
<path d="M254.744 36.0796L251.464 40.0884" stroke="black"/>
<path d="M294.468 64.5059L291.917 69.2436" stroke="black"/>
<path d="M295.561 64.8703L293.739 69.6081" stroke="black"/>
<path d="M296.654 65.2348L295.561 70.3369" stroke="black"/>
<path d="M298.476 65.5992L297.383 71.4303" stroke="black"/>
<path d="M301.392 66.6925L299.205 71.7947" stroke="black"/>
<path d="M303.214 66.6925L302.485 72.5236" stroke="black"/>
<path d="M305.765 67.057L304.672 72.888" stroke="black"/>
<path d="M307.952 67.7859L307.223 72.888" stroke="black"/>
<path d="M353.871 68.5147V74.3458" stroke="black"/>
<path d="M355.694 68.5147L355.329 73.9813" stroke="black"/>
<path d="M357.88 68.5147C357.88 68.8063 356.665 72.5236 356.058 74.3458" stroke="black"/>
<path d="M360.067 68.8792L357.88 74.3458" stroke="black"/>
<path d="M362.253 68.8792L358.973 75.0747" stroke="black"/>
<path d="M364.44 69.9725L359.338 75.8035" stroke="black"/>
<path d="M365.533 71.7947L359.702 76.8968" stroke="black"/>
<path d="M365.898 77.6257L360.067 78.7191" stroke="black"/>
<path d="M365.898 74.7102L360.431 77.6257" stroke="black"/>
<path d="M35.8349 200.189C36.6318 200.869 37.0302 201.724 37.0302 202.755C37.0302 203.693 36.7021 204.49 36.0458 205.146C35.3896 205.802 34.5927 206.13 33.6552 206.13C32.7177 206.13 31.9208 205.802 31.2646 205.146C30.6083 204.49 30.2802 203.693 30.2802 202.755C30.2802 202.334 30.3974 201.871 30.6318 201.367C30.8661 200.863 31.1474 200.47 31.4755 200.189L32.0029 200.716C31.7333 200.939 31.5048 201.25 31.3173 201.648C31.1298 202.046 31.0361 202.416 31.0361 202.755C31.0361 203.482 31.288 204.103 31.7919 204.619C32.3076 205.123 32.9286 205.375 33.6552 205.375C34.3818 205.375 34.997 205.123 35.5009 204.619C36.0165 204.103 36.2744 203.482 36.2744 202.755C36.2744 202.416 36.1806 202.046 35.9931 201.648C35.8056 201.25 35.5771 200.945 35.3076 200.734L35.8349 200.189ZM34.0244 199.38V203.125H33.2861V199.38H34.0244Z" fill="white"/>
</svg>
